<svg enable-background="new 0 0 120 60" height="60" viewBox="0 0 120 60" width="120" xmlns="http://www.w3.org/2000/svg" xmlns:xlink="http://www.w3.org/1999/xlink"><radialGradient id="a" cx="-334.3434" cy="335.7465" gradientTransform="matrix(159.1024 0 0 -159.1024 53235.1445 53437.875)" gradientUnits="userSpaceOnUse" r=".2345"><stop offset="0" stop-color="#fff44f"/><stop offset=".29" stop-color="#ff980e"/><stop offset=".43" stop-color="#ff5d36"/><stop offset=".53" stop-color="#ff3750"/><stop offset=".75" stop-color="#f5156c"/><stop offset=".76" stop-color="#f1136e"/><stop offset=".88" stop-color="#da057a"/><stop offset=".95" stop-color="#d2007f"/></radialGradient><radialGradient id="b" cx="-334.5093" cy="335.7368" gradientTransform="matrix(159.1024 0 0 -159.1024 53234.8711 53437.875)" gradientUnits="userSpaceOnUse" r=".1388"><stop offset="0" stop-color="#b5007f"/><stop offset="1" stop-color="#f5156c" stop-opacity="0"/></radialGradient><radialGradient id="c" cx="-334.3235" cy="335.7599" gradientTransform="matrix(159.1024 0 0 -159.1024 53235.1797 53437.875)" gradientUnits="userSpaceOnUse" r=".2754"><stop offset="0" stop-color="#fd0" stop-opacity=".6"/><stop offset=".09" stop-color="#ffd702" stop-opacity=".58"/><stop offset=".2" stop-color="#fec606" stop-opacity=".52"/><stop offset=".32" stop-color="#fda90e" stop-opacity=".43"/><stop offset=".45" stop-color="#fc8119" stop-opacity=".3"/><stop offset=".57" stop-color="#fa4e27" stop-opacity=".14"/><stop offset=".66" stop-color="#f92433" stop-opacity="0"/></radialGradient><radialGradient id="d" cx="-334.4182" cy="335.6709" gradientTransform="matrix(159.1024 0 0 -159.1024 53235.0195 53437.875)" gradientUnits="userSpaceOnUse" r=".3552"><stop offset=".15" stop-color="#960e18"/><stop offset=".18" stop-color="#b11927" stop-opacity=".74"/><stop offset=".22" stop-color="#db293d" stop-opacity=".34"/><stop offset=".26" stop-color="#f5334b" stop-opacity=".09"/><stop offset=".27" stop-color="#ff3750" stop-opacity="0"/></radialGradient><radialGradient id="e" cx="-334.4448" cy="335.6753" gradientTransform="matrix(159.1024 0 0 -159.1024 53234.9766 53437.875)" gradientUnits="userSpaceOnUse" r=".3552"><stop offset=".11" stop-color="#960e18"/><stop offset=".15" stop-color="#b11927" stop-opacity=".74"/><stop offset=".21" stop-color="#db293d" stop-opacity=".34"/><stop offset=".26" stop-color="#f5334b" stop-opacity=".09"/><stop offset=".28" stop-color="#ff3750" stop-opacity="0"/></radialGradient><linearGradient id="f" gradientTransform="matrix(114.9722 0 0 -75.9117 38495.62890000001 25402.625)" gradientUnits="userSpaceOnUse" x1="-334.5512" x2="-334.4671" y1="334.3917" y2="334.2955"><stop offset="0" stop-color="#ffbc04"/><stop offset=".17" stop-color="#ffab02" stop-opacity=".62"/><stop offset=".34" stop-color="#ff9b01" stop-opacity=".29"/><stop offset=".45" stop-color="#ff9200" stop-opacity=".08"/><stop offset=".51" stop-color="#ff8e00" stop-opacity="0"/></linearGradient><radialGradient id="g" cx="-334.3473" cy="335.6179" gradientTransform="matrix(142.6366 0 0 -142.6366 47729.5586 47889.9531)" gradientUnits="userSpaceOnUse" r=".2458"><stop offset="0" stop-color="#ff980e"/><stop offset=".3" stop-color="#ff7139"/><stop offset=".48" stop-color="#ff5b51"/><stop offset=".63" stop-color="#ff4f5e"/><stop offset=".74" stop-color="#ff4055"/><stop offset=".84" stop-color="#ff3750"/></radialGradient><radialGradient id="h" cx="-334.3473" cy="335.6179" gradientTransform="matrix(142.6366 0 0 -142.6366 47729.5586 47889.9531)" gradientUnits="userSpaceOnUse" r=".2458"><stop offset=".08" stop-color="#ffde08"/><stop offset=".15" stop-color="#ffdb08" stop-opacity=".97"/><stop offset=".25" stop-color="#ffd209" stop-opacity=".88"/><stop offset=".37" stop-color="#ffc40b" stop-opacity=".73"/><stop offset=".51" stop-color="#ffb00d" stop-opacity=".53"/><stop offset=".67" stop-color="#ff970f" stop-opacity=".28"/><stop offset=".82" stop-color="#ff7b12" stop-opacity="0"/></radialGradient><radialGradient id="i" cx="-333.485" cy="336.2065" gradientTransform="matrix(35.5987 138.1229 138.1229 -35.5987 -34534.6211 58059.9609)" gradientUnits="userSpaceOnUse" r=".1206"><stop offset=".36" stop-color="#ff3750"/><stop offset=".44" stop-color="#ff4d47" stop-opacity=".63"/><stop offset=".55" stop-color="#ff673d" stop-opacity=".18"/><stop offset=".59" stop-color="#ff7139" stop-opacity="0"/></radialGradient><radialGradient id="j" cx="-334.4236" cy="335.532" gradientTransform="matrix(142.6366 0 0 -142.6366 47729.543 47889.9531)" gradientUnits="userSpaceOnUse" r=".1204"><stop offset=".22" stop-color="#ff3750" stop-opacity=".8"/><stop offset=".27" stop-color="#ff444b" stop-opacity=".63"/><stop offset=".41" stop-color="#ff643e" stop-opacity=".18"/><stop offset=".47" stop-color="#ff7139" stop-opacity="0"/></radialGradient><radialGradient id="k" cx="-334.334" cy="335.266" gradientTransform="matrix(110.368 0 0 -110.368 36946.1562 37017.2305)" gradientUnits="userSpaceOnUse" r=".5369"><stop offset=".05" stop-color="#fff44f"/><stop offset=".46" stop-color="#ff980e"/><stop offset=".52" stop-color="#ff8424"/><stop offset=".59" stop-color="#ff7634"/><stop offset=".64" stop-color="#ff7139"/></radialGradient><linearGradient id="l" gradientTransform="matrix(159.4285 0 0 -141.8605 53344.125 47644.5977)" gradientUnits="userSpaceOnUse" x1="-334.376" x2="-334.4813" y1="335.717" y2="335.5548"><stop offset="0" stop-color="#fff44f" stop-opacity=".8"/><stop offset=".09" stop-color="#fff44f" stop-opacity=".7"/><stop offset=".75" stop-color="#fff44f" stop-opacity="0"/></linearGradient><linearGradient id="m" gradientTransform="matrix(108.9196 0 0 -99.6268 36460.8906 33394.6055)" gradientUnits="userSpaceOnUse" x1="-334.4767" x2="-334.4767" y1="334.8535" y2="335.0585"><stop offset="0" stop-color="#3a8ee6"/><stop offset=".24" stop-color="#5c79f0"/><stop offset=".63" stop-color="#9059ff"/><stop offset="1" stop-color="#c139e6"/></linearGradient><linearGradient id="n" gradientTransform="matrix(108.9196 0 0 -99.6268 36460.8906 33394.6055)" gradientUnits="userSpaceOnUse" x1="-334.5471" x2="-334.395" y1="335.0411" y2="334.902"><stop offset=".81" stop-color="#9059ff" stop-opacity="0"/><stop offset="1" stop-color="#6e008b" stop-opacity=".5"/></linearGradient><path d="m50.4 23.4h8.8v2.4h-6.3v3.2h6.3v2.4h-6.3v5.2h-2.5zm11.8-1c.9 0 1.5.6 1.5 1.5s-.6 1.5-1.5 1.5-1.5-.6-1.5-1.4c0-.9.7-1.6 1.5-1.6zm-1.3 4.4h2.5v9.7h-2.5zm9.7 2.7c-.3-.3-.8-.4-1.2-.4-1 0-1.6.6-1.6 2.1v5.4h-2.5v-9.7h2.4v1.4c.5-1.1 1.3-1.5 2.3-1.5.6 0 1.2.2 1.7.5zm1.1 2.2c0-2.8 2.1-5.1 5-5.1s5 2.1 5 5v1h-7.6c.3 1.2 1.2 2 2.7 2 1.1 0 1.9-.5 2.4-1.4l2.1 1.2c-1 1.5-2.5 2.3-4.6 2.3-3.1 0-5-2.1-5-5zm2.4-1.1h5.1c-.3-1.2-1.3-1.9-2.6-1.9-1.1 0-2.1.6-2.5 1.9zm8.2-3.8h1.7v-.5c0-2.6 1.1-3.7 3.6-3.7h.9v2.1h-.7c-1.2 0-1.4.4-1.4 1.6v.5h2.1v2.2h-2.1v7.5h-2.4v-7.5h-1.7zm6.6 4.8c0-2.8 2.1-5.1 5.1-5.1 1.8 0 3.5 1 4.4 2.5.9 1.6.9 3.5 0 5.1s-2.6 2.5-4.4 2.5c-3 .1-5.1-2.1-5.1-5zm7.8 0c0-1.5-1.2-2.8-2.7-2.8s-2.7 1.2-2.7 2.8 1.1 2.8 2.7 2.8c1.5 0 2.7-1.2 2.7-2.8zm5.7-.1-3.5-4.8h2.9l2.1 3 2.1-3h2.9l-3.6 4.7 3.7 5h-2.9l-2.3-3.2-2.3 3.2h-2.9z" fill="#20133a"/><path d="m40.5 20c-3-3.9-7.6-6.3-12.5-6.4-3.8-.1-6.5 1.1-7.9 2 2-1.2 4.9-1.8 7.4-1.8 6.5.1 13.5 4.5 14.5 12.5 1.2 9.1-5.2 16.8-14.2 16.8-9.9 0-15.9-8.7-14.3-16.5.1-.4 0-.8.2-1.1.1-1.4.6-3.5 1.7-5.7-1.1.6-2.6 2.4-3.3 4.2-1 2.5-1.4 5.4-1.1 8.3 0 .2 0 .4.1.6 1.2 6.7 6.3 12 13 13.4 6.7 1.3 13.5-1.6 17.1-7.4s3.4-13.4-.7-18.9z" fill="url(#a)"/><path d="m40.5 20c-3-3.9-7.6-6.3-12.5-6.4-3.8-.1-6.5 1.1-7.9 2 2-1.2 4.9-1.8 7.4-1.8 6.5.1 13.5 4.5 14.5 12.5 1.2 9.1-5.2 16.8-14.2 16.8-9.9 0-15.9-8.7-14.3-16.5.1-.4 0-.8.2-1.1.1-1.4.6-3.5 1.7-5.7-1.1.6-2.6 2.4-3.3 4.2-1 2.5-1.4 5.4-1.1 8.3 0 .2 0 .4.1.6 1.2 6.7 6.3 12 13 13.4 6.7 1.3 13.5-1.6 17.1-7.4s3.4-13.4-.7-18.9z" fill="url(#b)"/><path d="m40.5 20c-3-3.9-7.6-6.3-12.5-6.4-3.8-.1-6.5 1.1-7.9 2 2-1.2 4.9-1.8 7.4-1.8 6.5.1 13.5 4.5 14.5 12.5 1.2 9.1-5.2 16.8-14.2 16.8-9.9 0-15.9-8.7-14.3-16.5.1-.4 0-.8.2-1.1.1-1.4.6-3.5 1.7-5.7-1.1.6-2.6 2.4-3.3 4.2-1 2.5-1.4 5.4-1.1 8.3 0 .2 0 .4.1.6 1.2 6.7 6.3 12 13 13.4 6.7 1.3 13.5-1.6 17.1-7.4s3.4-13.4-.7-18.9z" fill="url(#c)"/><path d="m40.5 20c-3-3.9-7.6-6.3-12.5-6.4-3.8-.1-6.5 1.1-7.9 2 2-1.2 4.9-1.8 7.4-1.8 6.5.1 13.5 4.5 14.5 12.5 1.2 9.1-5.2 16.8-14.2 16.8-9.9 0-15.9-8.7-14.3-16.5.1-.4 0-.8.2-1.1.1-1.4.6-3.5 1.7-5.7-1.1.6-2.6 2.4-3.3 4.2-1 2.5-1.4 5.4-1.1 8.3 0 .2 0 .4.1.6 1.2 6.7 6.3 12 13 13.4 6.7 1.3 13.5-1.6 17.1-7.4s3.4-13.4-.7-18.9z" fill="url(#d)"/><path d="m40.5 20c-3-3.9-7.6-6.3-12.5-6.4-3.8-.1-6.5 1.1-7.9 2 2-1.2 4.9-1.8 7.4-1.8 6.5.1 13.5 4.5 14.5 12.5 1.2 9.1-5.2 16.8-14.2 16.8-9.9 0-15.9-8.7-14.3-16.5.1-.4 0-.8.2-1.1.1-1.4.6-3.5 1.7-5.7-1.1.6-2.6 2.4-3.3 4.2-1 2.5-1.4 5.4-1.1 8.3 0 .2 0 .4.1.6 1.2 6.7 6.3 12 13 13.4 6.7 1.3 13.5-1.6 17.1-7.4s3.4-13.4-.7-18.9z" fill="url(#e)"/><path d="m42 26.3c.1 1 .2 2 .1 3 .5-.1 1.1-.2 1.6-.2-.2-3.3-1.3-6.4-3.3-9-3-3.9-7.6-6.3-12.5-6.4-3.8-.1-6.5 1.1-7.9 2 2-1.2 4.9-1.8 7.4-1.8 6.6 0 13.6 4.4 14.6 12.4z" fill="url(#f)"/><path d="m42.4 25.8c-.9-8.3-8.4-12.1-14.9-12-2.5 0-5.4.6-7.4 1.8-.5.3-1 .7-1.5 1.1.1 0 .2-.2.5-.4 1-.7 2-1.1 3.2-1.5 1.7-.5 3.6-.7 5.4-.6 7.4.4 12.7 6.6 12.8 13.1.2 5.4-4.3 9.7-9.4 10-3.7.2-7.2-1.6-8.9-5.2-.4-.8-.7-1.7-.8-2.6-.8-5.5 2.9-10.1 6.3-11.3-1.8-1.6-6.4-1.5-9.8 1-2.4 1.8-4 4.5-4.6 7.8-.4 2.5 0 5.1 1 7.4 2.1 5 6.9 8.4 12.4 8.8h1.2c10.8 0 15.5-8.2 14.5-17.4z" fill="url(#g)"/><path d="m42.4 25.8c-.9-8.3-8.4-12.1-14.9-12-2.5 0-5.4.6-7.4 1.8-.5.3-1 .7-1.5 1.1.1 0 .2-.2.5-.4 1-.7 2-1.1 3.2-1.5 1.7-.5 3.6-.7 5.4-.6 7.4.4 12.7 6.6 12.8 13.1.2 5.4-4.3 9.7-9.4 10-3.7.2-7.2-1.6-8.9-5.2-.4-.8-.7-1.7-.8-2.6-.8-5.5 2.9-10.1 6.3-11.3-1.8-1.6-6.4-1.5-9.8 1-2.4 1.8-4 4.5-4.6 7.8-.4 2.5 0 5.1 1 7.4 2.1 5 6.9 8.4 12.4 8.8h1.2c10.8 0 15.5-8.2 14.5-17.4z" fill="url(#h)"/><path d="m42.4 25.8c-.9-8.3-8.4-12.1-14.9-12-2.5 0-5.4.6-7.4 1.8-.5.3-1 .7-1.5 1.1.1 0 .2-.2.5-.4 1-.7 2-1.1 3.2-1.5 1.7-.5 3.6-.7 5.4-.6 7.4.4 12.7 6.6 12.8 13.1.2 5.4-4.3 9.7-9.4 10-3.7.2-7.2-1.6-8.9-5.2-.4-.8-.7-1.7-.8-2.6-.8-5.5 2.9-10.1 6.3-11.3-1.8-1.6-6.4-1.5-9.8 1-2.4 1.8-4 4.5-4.6 7.8-.4 2.5 0 5.1 1 7.4 2.1 5 6.9 8.4 12.4 8.8h1.2c10.8 0 15.5-8.2 14.5-17.4z" fill="url(#i)" opacity=".53"/><path d="m42.4 25.8c-.9-8.3-8.4-12.1-14.9-12-2.5 0-5.4.6-7.4 1.8-.5.3-1 .7-1.5 1.1.1 0 .2-.2.5-.4 1-.7 2-1.1 3.2-1.5 1.7-.5 3.6-.7 5.4-.6 7.4.4 12.7 6.6 12.8 13.1.2 5.4-4.3 9.7-9.4 10-3.7.2-7.2-1.6-8.9-5.2-.4-.8-.7-1.7-.8-2.6-.8-5.5 2.9-10.1 6.3-11.3-1.8-1.6-6.4-1.5-9.8 1-2.4 1.8-4 4.5-4.6 7.8-.4 2.5 0 5.1 1 7.4 2.1 5 6.9 8.4 12.4 8.8h1.2c10.8 0 15.5-8.2 14.5-17.4z" fill="url(#j)" opacity=".53"/><path d="m31.1 37.3c7-.4 10-6.2 10.2-10.4.3-6.4-3.5-13.4-13.7-12.7-1.8 0-3.7.1-5.4.6-1.1.3-2.2.8-3.2 1.5-.2.1-.3.2-.5.3.3-.2 3.8-2.2 8.6-1.6 5.8.8 11.1 5.3 11.1 11.2 0 4.6-3.5 8.1-7.7 7.8-6.2-.4-7.7-6.7-4.5-9.4-.9-.2-2.5.2-3.6 1.9-1 1.5-1 3.9-.3 5.5 1.8 3.7 5.3 5.5 9 5.3z" fill="url(#k)"/><path d="m40.5 20c-.4-.6-.9-1.1-1.4-1.6-.4-.4-.8-.8-1.3-1.2.3.2.5.5.8.7.9 1 1.6 2.1 2 3.3.9 2.6.8 5.8-.8 8.4-2 3-5.1 4.5-8.6 4.5-.1 0-.3 0-.4 0-6.2-.4-7.7-6.7-4.5-9.4-.9-.2-2.5.2-3.6 1.9-1 1.5-1 3.9-.3 5.5-.4-.8-.7-1.7-.8-2.6-.8-5.5 2.9-10.1 6.3-11.3-1.8-1.6-6.4-1.5-9.8 1-2 1.5-3.4 3.5-4.1 6 .1-1.4.6-3.4 1.7-5.6-1.1.6-2.6 2.4-3.3 4.2-1 2.5-1.4 5.4-1.1 8.3 0 .2 0 .4.1.6 1.2 6.7 6.3 12 13 13.4 6.7 1.3 13.5-1.6 17.1-7.4 3.4-5.8 3.1-13.2-1-18.7z" fill="url(#l)"/><path d="m40.5 21.3c-.4-1.2-1.1-2.4-2-3.3-1-1.1-2.4-2-3.7-2.7-1.2-.6-2.4-1-3.7-1.3-2.2-.5-4.6-.5-6.8 0-2.3.5-4.4 1.5-5.7 2.8 1-.6 2.3-1.1 3.3-1.3 4.5-1.1 9.4.1 12.8 3.3.7.6 1.3 1.4 1.8 2.2 2 3.3 1.8 7.4.3 9.8-1.2 1.8-3.7 3.5-6 3.5 3.6.2 6.9-1.3 8.9-4.5 1.6-2.7 1.7-5.9.8-8.5z" fill="url(#m)"/><path d="m40.5 21.3c-.4-1.2-1.1-2.4-2-3.3-1-1.1-2.4-2-3.7-2.7-1.2-.6-2.4-1-3.7-1.3-2.2-.5-4.6-.5-6.8 0-2.3.5-4.4 1.5-5.7 2.8 1-.6 2.3-1.1 3.3-1.3 4.5-1.1 9.4.1 12.8 3.3.7.6 1.3 1.4 1.8 2.2 2 3.3 1.8 7.4.3 9.8-1.2 1.8-3.7 3.5-6 3.5 3.6.2 6.9-1.3 8.9-4.5 1.6-2.7 1.7-5.9.8-8.5z" fill="url(#n)"/></svg>